<svg width="22" height="21" viewBox="0 0 22 21" fill="none" xmlns="http://www.w3.org/2000/svg">
<g clip-path="url(#clip0_8341_8580)">
<path d="M14.0293 19.6875H12.2793V17.9375C12.2793 17.4592 12.1626 17.0187 11.9293 16.6163C11.696 16.2137 11.378 15.8958 10.9755 15.6625C10.573 15.4292 10.1326 15.3125 9.6543 15.3125H4.4043C3.92596 15.3125 3.48555 15.4292 3.08305 15.6625C2.68055 15.8958 2.36263 16.2137 2.1293 16.6163C1.89596 17.0187 1.7793 17.4592 1.7793 17.9375V19.6875H0.0292969V17.9375C0.0292969 17.1442 0.224714 16.4121 0.615547 15.7413C1.00638 15.0704 1.53721 14.5396 2.20805 14.1487C2.87888 13.7579 3.61096 13.5625 4.4043 13.5625H9.6543C10.4476 13.5625 11.1797 13.7579 11.8505 14.1487C12.5214 14.5396 13.0522 15.0704 13.443 15.7413C13.8339 16.4121 14.0293 17.1442 14.0293 17.9375V19.6875ZM7.0293 11.8125C6.0843 11.8125 5.20346 11.5733 4.3868 11.095C3.59346 10.6283 2.96346 9.99833 2.4968 9.205C2.01846 8.38833 1.7793 7.5075 1.7793 6.5625C1.7793 5.6175 2.01846 4.73667 2.4968 3.92C2.96346 3.12667 3.59346 2.49667 4.3868 2.03C5.20346 1.55167 6.0843 1.3125 7.0293 1.3125C7.9743 1.3125 8.85513 1.55167 9.6718 2.03C10.4651 2.49667 11.0951 3.12667 11.5618 3.92C12.0401 4.73667 12.2793 5.6175 12.2793 6.5625C12.2793 7.5075 12.0401 8.38833 11.5618 9.205C11.0951 9.99833 10.4651 10.6283 9.6718 11.095C8.85513 11.5733 7.9743 11.8125 7.0293 11.8125ZM7.0293 10.0625C7.6593 10.0625 8.24263 9.905 8.7793 9.59C9.31596 9.275 9.7418 8.84917 10.0568 8.3125C10.3718 7.77583 10.5293 7.1925 10.5293 6.5625C10.5293 5.9325 10.3718 5.34917 10.0568 4.8125C9.7418 4.27583 9.31596 3.85 8.7793 3.535C8.24263 3.22 7.6593 3.0625 7.0293 3.0625C6.3993 3.0625 5.81596 3.22 5.2793 3.535C4.74263 3.85 4.3168 4.27583 4.0018 4.8125C3.6868 5.34917 3.5293 5.9325 3.5293 6.5625C3.5293 7.1925 3.6868 7.77583 4.0018 8.3125C4.3168 8.84917 4.74263 9.275 5.2793 9.59C5.81596 9.905 6.3993 10.0625 7.0293 10.0625Z" fill="black"/>
</g>
<defs>
<clipPath id="clip0_8341_8580">
<rect width="21.48" height="21" fill="white" transform="matrix(1 0 0 -1 0.0292969 21)"/>
</clipPath>
</defs>
</svg>
