<svg width="28" height="21" viewBox="0 0 28 21" fill="none" xmlns="http://www.w3.org/2000/svg">
<g clip-path="url(#clip0_8341_8569)">
<path d="M13.6367 2.39752C14.5117 2.39752 15.3167 2.62502 16.0517 3.08002C16.7867 3.53502 17.3642 4.15336 17.7842 4.93502C18.2276 5.75169 18.4492 6.65586 18.4492 7.64752C18.4492 9.00086 18.1342 10.3017 17.5042 11.55C16.9676 12.6117 16.2034 13.6325 15.2117 14.6125C14.4417 15.3825 13.5259 16.135 12.4642 16.87C11.8692 17.2784 11.0876 17.7684 10.1192 18.34L9.69922 18.585L9.27922 18.34C8.31089 17.7684 7.52922 17.2784 6.93422 16.87C5.87255 16.135 4.95672 15.3825 4.18672 14.6125C3.19505 13.6325 2.43089 12.6117 1.89422 11.55C1.26422 10.3017 0.949219 9.00086 0.949219 7.64752C0.949219 6.65586 1.17089 5.75169 1.61422 4.93502C2.03422 4.15336 2.61172 3.53502 3.34672 3.08002C4.08172 2.62502 4.88672 2.39752 5.76172 2.39752C6.52005 2.40919 7.27255 2.59586 8.01922 2.95752C8.64922 3.26086 9.20922 3.65752 9.69922 4.14752C10.1892 3.65752 10.7492 3.26086 11.3792 2.95752C12.1259 2.58419 12.8784 2.39752 13.6367 2.39752ZM10.5217 16.065C11.3151 15.5634 12.0209 15.0675 12.6392 14.5775C13.9692 13.5159 14.9726 12.425 15.6492 11.305C16.3492 10.1384 16.6992 8.92502 16.6992 7.66502C16.6992 6.98836 16.5651 6.38169 16.2967 5.84502C16.0284 5.30836 15.6609 4.89419 15.1942 4.60252C14.7276 4.31085 14.2084 4.15919 13.6367 4.14752C13.1701 4.14752 12.6976 4.26127 12.2192 4.48877C11.7409 4.71627 11.3151 5.01669 10.9417 5.39002L9.69922 6.63252L8.45672 5.39002C8.08339 5.01669 7.65755 4.71627 7.17922 4.48877C6.70089 4.26127 6.22839 4.14752 5.76172 4.14752C5.20172 4.14752 4.68839 4.29919 4.22172 4.60252C3.75505 4.90586 3.38464 5.32294 3.11047 5.85377C2.8363 6.38461 2.69922 6.98836 2.69922 7.66502C2.69922 8.92502 3.04922 10.1384 3.74922 11.305C4.42589 12.425 5.42922 13.5159 6.75922 14.5775C7.37755 15.0675 8.08339 15.5634 8.87672 16.065C9.12172 16.2167 9.39589 16.38 9.69922 16.555C10.0026 16.38 10.2767 16.2167 10.5217 16.065Z" fill="black"/>
</g>
<defs>
<clipPath id="clip0_8341_8569">
<rect width="21.48" height="21" fill="white" transform="matrix(1 0 0 -1 0.949219 21)"/>
</clipPath>
</defs>
</svg>
