<svg width="27" height="21" viewBox="0 0 27 21" fill="none" xmlns="http://www.w3.org/2000/svg">
<g clip-path="url(#clip0_8341_8574)">
<path d="M2.22852 13.5625V3.0625H0.478516V1.3125H3.10352C3.34852 1.3125 3.5556 1.39708 3.72477 1.56625C3.89393 1.73542 3.97852 1.9425 3.97852 2.1875V12.6875H14.8635L16.6135 5.6875H5.72852V3.9375H17.7335C17.9785 3.9375 18.1856 4.02208 18.3548 4.19125C18.5239 4.36042 18.6085 4.5675 18.6085 4.8125C18.6085 4.8825 18.5968 4.9525 18.5735 5.0225L16.386 13.7725C16.3393 13.9708 16.2373 14.1312 16.0798 14.2537C15.9223 14.3762 15.7443 14.4375 15.546 14.4375H3.10352C2.85852 14.4375 2.65143 14.3529 2.48227 14.1838C2.3131 14.0146 2.22852 13.8075 2.22852 13.5625ZM3.97852 19.6875C3.66352 19.6875 3.37185 19.6088 3.10352 19.4513C2.83518 19.2937 2.62227 19.0808 2.46477 18.8125C2.30727 18.5442 2.22852 18.2525 2.22852 17.9375C2.22852 17.6225 2.30727 17.3308 2.46477 17.0625C2.62227 16.7942 2.83518 16.5812 3.10352 16.4237C3.37185 16.2662 3.66352 16.1875 3.97852 16.1875C4.29352 16.1875 4.58518 16.2662 4.85352 16.4237C5.12185 16.5812 5.33477 16.7942 5.49227 17.0625C5.64977 17.3308 5.72852 17.6225 5.72852 17.9375C5.72852 18.2525 5.64977 18.5442 5.49227 18.8125C5.33477 19.0808 5.12185 19.2937 4.85352 19.4513C4.58518 19.6088 4.29352 19.6875 3.97852 19.6875ZM14.4785 19.6875C14.1635 19.6875 13.8718 19.6088 13.6035 19.4513C13.3352 19.2937 13.1223 19.0808 12.9648 18.8125C12.8073 18.5442 12.7285 18.2525 12.7285 17.9375C12.7285 17.6225 12.8073 17.3308 12.9648 17.0625C13.1223 16.7942 13.3352 16.5812 13.6035 16.4237C13.8718 16.2662 14.1635 16.1875 14.4785 16.1875C14.7935 16.1875 15.0852 16.2662 15.3535 16.4237C15.6218 16.5812 15.8348 16.7942 15.9923 17.0625C16.1498 17.3308 16.2285 17.6225 16.2285 17.9375C16.2285 18.2525 16.1498 18.5442 15.9923 18.8125C15.8348 19.0808 15.6218 19.2937 15.3535 19.4513C15.0852 19.6088 14.7935 19.6875 14.4785 19.6875Z" fill="black"/>
</g>
<defs>
<clipPath id="clip0_8341_8574">
<rect width="21.48" height="21" fill="white" transform="matrix(1 0 0 -1 0.478516 21)"/>
</clipPath>
</defs>
</svg>
